<svg version="1" xmlns="http://www.w3.org/2000/svg" width="682.667" height="682.667" viewBox="0 0 512.000000 512.000000"><path d="M21 108v27h470V81H21v27zm377 0v17h-34V91h34v17zm41 0v17h-34V91h34v17zm20.2-7.3l4.8 4.7 5-4.9c3.9-3.8 5.2-4.7 6.2-3.7s.1 2.3-3.7 6.2l-4.9 5 4.7 4.8c3.7 3.8 4.5 5 3.5 6s-2.2.2-6-3.5l-4.8-4.7-4.8 4.7c-3.8 3.7-5 4.5-6 3.5s-.2-2.2 3.5-6l4.7-4.8-4.8-4.9c-2.7-2.7-4.5-5.4-4.2-6 1.1-1.7 1.7-1.4 6.8 3.6zM236 155.5c-27.2 4-52.5 15.7-78.9 36.2-19.3 15-36.9 46.2-43.2 76.6-5 24 .8 55.9 15.4 84.1 10.2 19.7 29.6 37.5 50.6 46.6 28.9 12.5 69.5 15.7 94.6 7.5 19-6.3 37.6-17 50-28.7 23.5-22.2 30.6-47.4 24-84.3-5-28.2-9.3-41-18.3-54.3-8.3-12.1-26.6-25.6-41-30.2-19.4-6.3-45.9-8.7-58.6-5.4-8.1 2.1-27.4 12-36.1 18.6-14.9 11.3-28.2 32.3-31.2 49.3-3.7 21.6 1.1 48.1 11.9 65.1C181.9 347 198 358 212 361.7c8.6 2.2 27.9 2.2 37.6.1 14.9-3.4 32.3-12 40.8-20.3 7.4-7.1 10.6-15 11.3-27.8.7-12.8-.8-23.3-4.8-33.9-5.5-14.1-14.6-22.5-30.9-28.2-7.7-2.7-9.7-3-21.5-3-11.8-.1-13.5.1-18 2.3-2.7 1.4-7.7 5.2-11.1 8.5-8.2 8.2-10.8 14.7-10.9 27.1 0 7.9.3 9.7 2.8 14.7 3.6 7.4 11.9 15 18.4 16.9 2.8.8 9.3 1.4 16 1.4 10.4 0 11.3-.2 13.7-2.4 2-1.9 2.6-3.4 2.6-6.6 0-6.4-1.9-7.5-12.6-7.5-11.4 0-15.7-1.2-18.8-5.3-6.5-8.5-5.7-17.5 2.2-25.7 6.1-6.2 10.8-7.6 20.1-6 22.1 3.8 33.1 17.6 33.1 41.4 0 13-1.8 18.3-8 23.9-5.2 4.7-17.3 10.5-27.6 13.2-8.5 2.3-23.5 2.1-30.4-.3-9.3-3.2-14.1-6.2-20-12.1-11.3-11.4-16.5-27.1-15.8-47.1.6-14.3 2.3-19.2 12.2-33.9 6-9 8.1-11.3 14.1-15.3 15.9-10.7 28.3-14.8 45-14.8 12.6 0 22.6 2.4 33.4 8 14.4 7.5 27.3 20.4 33.7 33.8 3.6 7.6 10 34.7 11.3 47.7 1.3 13.7.3 21.7-3.7 31.3-3.5 8.1-10.6 18.6-15.7 23-9 8-26.9 17.7-41.5 22.6-18.6 6.2-46.4 5.6-69.5-1.5-26.8-8.3-42.8-21.5-54.5-45.2-7.7-15.4-11.1-30.1-11.7-49.7-.8-22.7 1-32.1 9.4-49.2 3.5-7.2 8.3-15.9 10.8-19.3 14.2-20 47.6-42.3 71.5-47.7 17-3.8 49.9-1.8 72 4.3 10.2 2.9 24.3 9.1 30.8 13.6 11 7.5 25.5 24.4 36 42 4.9 8.2 12.1 27.2 16.1 42.8 2.2 8.7 4.7 12 10.2 13.5 4.4 1.2 8.3.1 9.8-2.9 1.8-3.3 1.2-11.4-1.9-25.8-2.5-11.8-3.9-15.7-9.5-27.1-7.4-14.8-19.9-34.2-27.6-42.6-2.8-3.1-9-8.2-13.8-11.4-23.4-15.7-51.2-24.3-82.6-25.7-7.7-.3-15.3-.8-17-.9-1.6-.2-6.8.2-11.5.9z"/></svg>